<svg width="50" height="11" viewBox="0 0 50 11" fill="none" xmlns="http://www.w3.org/2000/svg">
<path d="M4.06279 0H6.46353L10.4571 10.4571H7.87166L7.0868 8.31025H3.39335L2.58541 10.4571H0L1.5928 6.25577H3.99354H6.46353L4.06279 0Z" fill="#636A75"/>
<path d="M13.9429 0H16.3436L19.1829 6.48661L22.0454 0H24.423V10.4571H22.0915V5.21699L19.76 10.4571H18.6289L16.2974 5.21699V10.4802H13.9429V0Z" fill="#636A75"/>
<path d="M28.3932 4.20129H36.5419V6.27886H28.3932V4.20129ZM28.3932 2.23915V0H36.5419V2.23915H28.3932ZM36.5188 8.241V10.4802H28.3932V8.241" fill="#636A75"/>
<path d="M40.697 0H43.3748L47.2991 6.23269V0H49.9999V10.4571H47.3452L43.3979 4.22438V10.4571H40.697V0Z" fill="#636A75"/>
</svg>
