<svg width="11" height="19" viewBox="0 0 11 19" fill="none" xmlns="http://www.w3.org/2000/svg">
<path d="M10.9457 2.28571C10.9457 2.125 10.8743 1.98214 10.7671 1.875L9.87427 0.982141C9.76713 0.875 9.60641 0.80357 9.46355 0.80357C9.3207 0.80357 9.15998 0.875 9.05284 0.982141L0.731411 9.30357C0.624268 9.41071 0.552839 9.57143 0.552839 9.71428C0.552839 9.85714 0.624268 10.0179 0.731411 10.125L9.05284 18.4464C9.15998 18.5536 9.3207 18.625 9.46355 18.625C9.60641 18.625 9.76713 18.5536 9.87427 18.4464L10.7671 17.5536C10.8743 17.4464 10.9457 17.2857 10.9457 17.1429C10.9457 17 10.8743 16.8393 10.7671 16.7321L3.74927 9.71428L10.7671 2.69643C10.8743 2.58928 10.9457 2.42857 10.9457 2.28571Z" fill="#636A75"/>
</svg>
