<svg width="12" height="19" viewBox="0 0 12 19" fill="none" xmlns="http://www.w3.org/2000/svg">
<path d="M11.3743 9.71428C11.3743 9.57143 11.3028 9.41071 11.1957 9.30357L2.87427 0.982141C2.76712 0.875 2.60641 0.80357 2.46355 0.80357C2.3207 0.80357 2.15998 0.875 2.05284 0.982141L1.15998 1.875C1.05284 1.98214 0.98141 2.14286 0.98141 2.28571C0.98141 2.42857 1.05284 2.58928 1.15998 2.69643L8.17784 9.71428L1.15998 16.7321C1.05284 16.8393 0.98141 17 0.98141 17.1429C0.98141 17.3036 1.05284 17.4464 1.15998 17.5536L2.05284 18.4464C2.15998 18.5536 2.3207 18.625 2.46355 18.625C2.60641 18.625 2.76712 18.5536 2.87427 18.4464L11.1957 10.125C11.3028 10.0179 11.3743 9.85714 11.3743 9.71428Z" fill="#636A75"/>
</svg>
