<svg width="30" height="23" viewBox="0 0 30 23" fill="none" xmlns="http://www.w3.org/2000/svg">
<path d="M28.1249 22.5H1.87501C0.839433 22.5 0 21.6605 0 20.625C0 19.5895 0.839433 18.75 1.87501 18.75H28.125C29.1605 18.75 30 19.5895 30 20.625C29.9999 21.6605 29.1605 22.5 28.1249 22.5Z" fill="black"/>
<path d="M28.1249 13.125H1.87501C0.839433 13.125 0 12.2855 0 11.25C0 10.2145 0.839433 9.375 1.87501 9.375H28.125C29.1605 9.375 30 10.2144 30 11.25C30 12.2856 29.1605 13.125 28.1249 13.125Z" fill="black"/>
<path d="M28.1249 3.75002H1.87501C0.839433 3.75002 0 2.91058 0 1.87501C0 0.839433 0.839433 0 1.87501 0H28.125C29.1605 0 30 0.839433 30 1.87501C30 2.91058 29.1605 3.75002 28.1249 3.75002Z" fill="black"/>
</svg>
