<svg width="24" height="24" viewBox="0 0 24 24" fill="none" xmlns="http://www.w3.org/2000/svg">
<path d="M14.1988 12.0173L23.5439 2.67186C24.1521 2.06398 24.1521 1.08112 23.5439 0.473244C22.936 -0.134636 21.9532 -0.134636 21.3453 0.473244L11.9999 9.81865L2.65474 0.473244C2.04658 -0.134636 1.064 -0.134636 0.456124 0.473244C-0.152041 1.08112 -0.152041 2.06398 0.456124 2.67186L9.80125 12.0173L0.456124 21.3627C-0.152041 21.9706 -0.152041 22.9534 0.456124 23.5613C0.759068 23.8645 1.15739 24.0169 1.55543 24.0169C1.95347 24.0169 2.35152 23.8645 2.65474 23.5613L11.9999 14.2159L21.3453 23.5613C21.6485 23.8645 22.0466 24.0169 22.4446 24.0169C22.8426 24.0169 23.2407 23.8645 23.5439 23.5613C24.1521 22.9534 24.1521 21.9706 23.5439 21.3627L14.1988 12.0173Z" fill="black"/>
</svg>
