<svg width="150" height="42" viewBox="0 0 150 42" fill="none" xmlns="http://www.w3.org/2000/svg">
<path fill-rule="evenodd" clip-rule="evenodd" d="M36.7223 30.029C52.9531 30.9758 66.1407 35.7777 75 42C57.4842 35.7777 19.8828 35.7101 0 36.7246C13.661 30.0966 20.8972 29.0821 36.7223 30.029Z" fill="#BF0A21"/>
<path fill-rule="evenodd" clip-rule="evenodd" d="M29.148 0H28.7422L26.3752 6.01933C25.9018 7.23672 25.9018 6.89856 25.1579 7.16909L24.0758 7.43962L23.0614 10.0097L22.6556 13.1208L22.3175 19.0725C22.3175 19.0725 21.3031 20.087 20.8973 19.7488C20.4915 19.4106 20.1534 19.2077 20.1534 19.2077C20.1534 19.2077 19.139 21.0338 19.139 22.3189C19.0713 23.6715 18.5979 26.5797 18.1245 27.5942C17.6511 28.6087 17.1777 29.5556 17.1777 29.5556C17.1777 29.5556 12.1056 32.9372 10.9559 33.343C9.7386 33.8165 6.62769 35.1691 6.62769 35.1691H60.7981C60.1218 34.6957 59.175 34.3575 58.7693 33.7488L58.5664 32.6667L58.2282 31.0435L57.8901 29.6232L57.2814 29.4879L56.9433 27.8648L55.5231 25.7005L54.7792 25.43C54.6439 25.2271 54.5763 24.8889 54.3734 24.8213L53.2914 26.6474L52.5474 27.6619V29.8261C53.7648 32.1256 54.9144 33.4107 55.2526 33.6812L57.2138 34.7633C56.4023 34.4251 55.5907 34.2899 54.8468 33.8165C54.1029 32.7343 52.818 31.314 52.2769 29.7585L51.1949 26.1739L50.6539 21.8454L50.451 18.1933L48.9631 18.058L48.1516 16.773L47.1372 16.5024L47.0695 17.1111L44.6349 14.2705C44.6349 14.2705 42.3355 13.4589 41.9974 13.0531C41.6593 12.6474 40.7125 9.6715 40.7125 9.6715L39.2923 8.79228L37.5339 4.5314L36.6547 2.29952L35.6403 0.676329L34.0172 0L33.4086 0.811595L32.2589 3.85508L31.4473 3.44928L31.0416 1.75846L29.8243 0.338165L29.148 0Z" fill="#BF0A21"/>
<path fill-rule="evenodd" clip-rule="evenodd" d="M38.2779 11.8357C37.1282 12.1062 36.3843 13.3236 36.7225 14.541C36.993 15.6908 38.2103 16.4347 39.4276 16.0966C40.5773 15.8261 41.3212 14.6087 40.9831 13.3913C40.6449 12.2415 39.4276 11.5652 38.2779 11.8357ZM29.892 15.6232C32.259 15.6908 33.9497 16.8405 35.0994 18.6666C36.2491 18.0579 37.534 17.6521 38.6161 17.5845C42.0651 17.4492 45.7171 19.9517 47.2049 22.9275C47.9488 24.3478 47.9488 25.0241 47.1373 24.5507C46.9344 24.4154 46.6639 24.2125 46.3257 23.942C46.1228 24.4831 45.1084 25.7005 44.9055 25.9034C42.2004 28.8792 43.0795 32.2608 43.4177 35.7778C43.4177 35.9807 43.4853 36.7246 43.3501 36.9275C43.1472 36.8599 42.809 36.2512 42.7414 36.1159C42.268 35.2367 41.8622 34.3575 41.5241 33.4106C41.3888 33.0724 41.3212 32.2608 40.9154 32.2608C40.5097 32.2608 40.442 33.0048 40.3068 33.343C40.0363 34.2222 39.6305 35.0338 39.1571 35.8454C39.0895 36.0483 38.5484 36.7922 38.3455 36.8599C38.075 36.5894 38.2779 35.2367 38.3455 34.9662C38.6161 33.4782 39.0895 31.3816 38.7513 29.8937C38.6837 29.5555 38.5484 29.1497 38.4132 28.8116C37.8721 27.5265 36.993 26.4444 36.1138 25.4299C35.708 25.3623 35.3023 24.8889 35.0318 24.1449C34.8289 23.5362 34.4907 22.9275 34.2878 22.3188C33.8821 22.5893 33.4087 23.0628 33.0029 23.5362C33.0029 26.9178 33.7468 32.1932 33.8144 33.0724C34.1526 35.5072 34.0173 39.5652 32.0561 34.9662C31.1769 32.8019 30.6359 30.0966 30.3654 27.7294C30.2301 26.6473 29.7567 26.8502 29.6215 27.9323C29.351 30.2319 28.8099 32.8695 27.9308 34.9662C27.5926 35.7778 26.4429 38.5507 26.1048 36.1159C25.9695 35.1691 26.0372 34.0869 26.1724 33.1401C26.3077 31.9227 27.7279 20.9662 26.5782 20.8309C26.0372 20.9662 25.9019 24.9565 24.9551 26.2415C24.3465 27.0531 23.8054 26.7826 23.6025 25.0241C23.6025 23.4686 23.6702 21.1691 24.617 19.2077C25.6314 17.1111 27.3221 15.6908 29.892 15.6232ZM36.6548 24.4154C37.3311 24.8212 37.9398 25.2947 38.0074 25.3623C39.901 26.7149 41.4565 26.5797 43.4177 25.3623C44.0263 24.9565 44.635 24.5507 45.3113 24.1449C45.5142 24.0096 45.9199 23.7391 46.1228 23.8067C44.9731 22.7922 42.8767 20.628 40.8478 20.628C39.1571 20.628 37.8045 21.7101 38.0074 23.6715C38.4808 25.2947 37.6693 24.1449 36.6548 23.4686C36.7225 23.7391 36.7225 24.0773 36.6548 24.4154ZM29.5538 10.3478C28.3365 10.686 27.6602 11.9033 27.9308 13.0531C28.2689 14.2705 29.4862 14.9468 30.6359 14.6763C31.8532 14.3381 32.5295 13.1207 32.259 11.971C31.9885 10.7536 30.7712 10.0773 29.5538 10.3478ZM38.8866 23.6715C39.1571 24.6183 40.1715 25.1594 41.1859 24.9565C42.2004 24.686 42.809 23.7391 42.5385 22.7922C42.3356 21.9806 41.5241 21.4396 40.6449 21.4396C39.5629 21.5072 38.5484 22.5217 38.8866 23.6715ZM36.1138 26.9178C36.0462 27.1884 36.0462 27.4589 35.9786 27.5942C35.7757 28.6763 35.5052 29.7584 35.3023 30.8406C34.9641 32.6666 34.8965 35.8454 36.7901 32.2608C37.1959 31.5169 37.534 30.8406 37.8045 30.0966C37.6693 29.4879 37.3987 28.8792 37.0606 28.3381C36.7901 27.7971 36.452 27.3236 36.1138 26.9178Z" fill="#FFD800"/>
<path fill-rule="evenodd" clip-rule="evenodd" d="M75 12.4378H77.347L77.5556 13.7952H77.6599C78.1815 13.3253 78.7031 12.9076 79.2246 12.5944C79.7462 12.2811 80.372 12.1767 81.0501 12.1767C82.1453 12.1767 82.9798 12.5422 83.5014 13.2731C84.0229 14.004 84.2837 15.0482 84.2837 16.4056V22.9317H81.363V16.7711C81.363 15.988 81.2587 15.4659 81.0501 15.1526C80.8414 14.8394 80.4764 14.6827 80.007 14.6827C79.5897 14.6827 79.2768 14.7871 78.9638 14.9438C78.6509 15.1004 78.338 15.4137 77.9207 15.7791V22.9317H75V12.4378ZM135.188 31.4418C134.666 31.4418 134.145 31.2851 133.675 31.0241C133.206 30.7631 132.841 30.3976 132.58 29.8755C132.319 29.3534 132.163 28.7791 132.163 28.1526C132.163 27.4739 132.319 26.8996 132.58 26.3775C132.841 25.8554 133.206 25.49 133.675 25.2289C134.145 24.9679 134.614 24.8112 135.188 24.8112C135.709 24.8112 136.231 24.9679 136.7 25.2289C137.17 25.49 137.535 25.8554 137.796 26.3775C138.056 26.8996 138.213 27.4739 138.213 28.1526C138.213 28.8313 138.056 29.4056 137.796 29.8755C137.535 30.3976 137.17 30.7631 136.7 31.0241C136.231 31.2851 135.761 31.4418 135.188 31.4418ZM135.188 30.0321C135.605 30.0321 135.866 29.8755 136.127 29.51C136.335 29.1968 136.439 28.7269 136.439 28.1526C136.439 27.5783 136.335 27.1084 136.127 26.7952C135.918 26.4819 135.605 26.2731 135.188 26.2731C134.771 26.2731 134.458 26.4297 134.249 26.7952C134.04 27.1084 133.936 27.5783 133.936 28.1526C133.936 28.7269 134.04 29.1968 134.249 29.51C134.51 29.8755 134.823 30.0321 135.188 30.0321ZM139.569 25.0201H140.977L141.081 26.1165H141.134C141.342 25.6988 141.603 25.3855 141.916 25.1767C142.229 24.9679 142.542 24.8635 142.907 24.8635C143.22 24.8635 143.428 24.9157 143.637 24.9679L143.324 26.4819C143.324 26.4819 143.22 26.4297 143.115 26.4297C143.011 26.3775 142.855 26.3775 142.698 26.3775C142.437 26.3775 142.177 26.4819 141.916 26.6908C141.655 26.8996 141.446 27.2129 141.29 27.5783V31.2851H139.569V25.0201ZM146.558 34C145.775 34 145.15 33.8434 144.68 33.5823C144.211 33.3213 143.95 32.9036 143.95 32.3815C143.95 31.8594 144.263 31.4418 144.837 31.0763V31.0241C144.471 30.7631 144.263 30.4498 144.263 29.9799C144.263 29.7711 144.315 29.5622 144.471 29.3534C144.628 29.1446 144.784 28.988 144.993 28.8313V28.7791C144.732 28.6225 144.576 28.3614 144.419 28.1004C144.263 27.8394 144.211 27.4739 144.211 27.1606C144.211 26.6908 144.315 26.2731 144.576 25.9598C144.784 25.5944 145.097 25.3333 145.515 25.1767C145.88 25.0201 146.297 24.9157 146.766 24.9157C147.079 24.9157 147.392 24.9679 147.705 25.0723H149.948V26.3253H148.905C148.957 26.4297 149.061 26.5341 149.113 26.743C149.166 26.8996 149.166 27.0562 149.166 27.2651C149.166 27.9438 148.957 28.4659 148.487 28.8313C148.018 29.1968 147.444 29.3534 146.714 29.3534C146.453 29.3534 146.193 29.3012 145.932 29.249C145.828 29.3012 145.775 29.4056 145.723 29.4578C145.671 29.51 145.671 29.6145 145.671 29.7189C145.671 29.8755 145.723 29.9799 145.88 30.0843C146.036 30.1888 146.297 30.1888 146.61 30.1888H147.653C148.435 30.1888 149.009 30.2932 149.426 30.5542C149.844 30.8153 150 31.2329 150 31.755C150 32.1727 149.844 32.5382 149.583 32.9036C149.322 33.2691 148.905 33.5301 148.383 33.6867C147.862 33.8956 147.236 34 146.558 34ZM146.662 28.257C146.923 28.257 147.184 28.1526 147.34 27.9438C147.497 27.7349 147.601 27.4739 147.601 27.1084C147.601 26.743 147.497 26.4819 147.34 26.3253C147.184 26.1165 146.923 26.0643 146.662 26.0643C146.401 26.0643 146.14 26.1687 145.984 26.3253C145.828 26.5341 145.723 26.7952 145.723 27.1084C145.723 27.4739 145.828 27.7349 145.984 27.9438C146.193 28.1526 146.401 28.257 146.662 28.257ZM146.818 32.9036C147.236 32.9036 147.601 32.7992 147.914 32.6426C148.175 32.4859 148.331 32.2771 148.331 32.0161C148.331 31.8072 148.227 31.6506 148.07 31.5984C147.914 31.5462 147.653 31.494 147.288 31.494H146.558C146.193 31.494 145.88 31.4418 145.723 31.3896C145.462 31.5984 145.358 31.8072 145.358 32.0683C145.358 32.3293 145.462 32.5382 145.723 32.6426C146.036 32.8514 146.401 32.9036 146.818 32.9036ZM86.9958 12.4378H89.3428L89.5515 13.7952H89.6558C90.1773 13.2731 90.6467 12.8554 91.1683 12.5944C91.6377 12.3333 92.2114 12.1767 92.8373 12.1767C93.5675 12.1767 94.1933 12.3333 94.6106 12.6466C95.08 12.9598 95.4451 13.3775 95.7058 14.004C96.2274 13.4297 96.749 13.0121 97.2705 12.6988C97.7921 12.3855 98.3658 12.2289 98.9917 12.2289C100.087 12.2289 100.921 12.5944 101.443 13.3253C101.965 14.0562 102.225 15.1004 102.225 16.4578V22.9839H99.3567V16.7711C99.3567 15.988 99.2524 15.4659 99.0438 15.1526C98.8352 14.8394 98.4701 14.6827 98.0007 14.6827C97.427 14.6827 96.8011 15.0482 96.0709 15.7791V22.9317H93.2024V16.7711C93.2024 15.988 93.0981 15.4659 92.8894 15.1526C92.6808 14.8394 92.3157 14.6827 91.8463 14.6827C91.2726 14.6827 90.6467 15.0482 89.9165 15.7791V22.9317H86.9958V12.4378ZM107.65 23.1928C106.711 23.1928 105.981 22.8795 105.407 22.3052C104.833 21.7309 104.572 20.9478 104.572 20.0602C104.572 18.9639 105.042 18.0763 105.981 17.4498C106.919 16.8233 108.432 16.4056 110.518 16.1968C110.466 15.0482 109.892 14.5261 108.797 14.5261C108.38 14.5261 107.91 14.6305 107.441 14.7872C106.971 14.9438 106.502 15.2048 105.981 15.5181L104.937 13.5863C106.398 12.6466 107.91 12.2289 109.318 12.2289C110.675 12.2289 111.666 12.6466 112.344 13.4297C113.022 14.2129 113.387 15.3614 113.387 16.9277V22.9839H111.04L110.831 21.8876H110.779C109.736 22.7229 108.693 23.1928 107.65 23.1928ZM108.64 20.9478C109.006 20.9478 109.318 20.8434 109.579 20.6867C109.892 20.5301 110.205 20.2691 110.518 19.9558V17.9197C109.371 18.0763 108.536 18.2851 108.067 18.5984C107.597 18.9116 107.337 19.2771 107.337 19.747C107.337 20.1125 107.441 20.3735 107.65 20.5823C107.91 20.8434 108.223 20.9478 108.64 20.9478ZM116.151 12.4378H118.498L118.707 13.4819H118.811C119.228 13.0643 119.75 12.751 120.271 12.5422C120.793 12.2811 121.314 12.1767 121.836 12.1767C123.088 12.1767 124.131 12.6466 124.861 13.6386C125.591 14.5783 125.956 15.8835 125.956 17.5542C125.956 18.7028 125.748 19.6948 125.33 20.5823C124.913 21.4699 124.392 22.0964 123.713 22.5663C123.035 23.0361 122.305 23.245 121.523 23.245C120.636 23.245 119.802 22.8795 118.967 22.0964L119.072 23.7671V26.8996H116.203V12.4378H116.151ZM120.845 20.7912C121.471 20.7912 121.992 20.5301 122.357 19.9558C122.775 19.3815 122.931 18.5984 122.931 17.502C122.931 15.5181 122.253 14.5261 120.949 14.5261C120.323 14.5261 119.645 14.8394 118.967 15.5181V20.008C119.593 20.5823 120.219 20.7912 120.845 20.7912ZM128.199 12.4378V26.8996H131.067V23.7671L130.963 22.0964C131.798 22.8273 132.632 23.1928 133.519 23.1928C134.301 23.1928 135.031 22.9839 135.709 22.5141C136.387 22.0442 136.909 21.4177 137.326 20.5301C137.743 19.6948 137.952 18.6506 137.952 17.502C137.952 15.8835 137.587 14.5783 136.857 13.5863C136.127 12.6466 135.136 12.1245 133.832 12.1245C133.31 12.1245 132.789 12.2289 132.267 12.49C131.745 12.751 131.276 13.0643 130.807 13.4297H130.702L130.494 12.3855H128.199V12.4378ZM132.893 20.7912C132.267 20.7912 131.641 20.5301 131.067 20.0602V15.5703C131.745 14.8916 132.371 14.5783 133.049 14.5783C134.353 14.5783 135.031 15.5703 135.031 17.5542C135.031 18.6506 134.823 19.4337 134.458 20.008C134.04 20.5301 133.519 20.7912 132.893 20.7912ZM143.95 23.1928C142.646 23.1928 141.603 22.7229 140.821 21.7309C140.038 20.739 139.673 19.4337 139.673 17.7108C139.673 16.6145 139.882 15.6225 140.299 14.7872C140.716 13.9518 141.238 13.3253 141.916 12.8554C142.594 12.3855 143.272 12.1767 144.054 12.1767C144.628 12.1767 145.097 12.2811 145.462 12.4378C145.88 12.6466 146.245 12.9076 146.662 13.2731L146.558 11.6546V8H149.478V22.8795H147.131L146.923 21.7831H146.871C146.453 22.2008 146.036 22.5141 145.515 22.7229C144.993 23.0361 144.471 23.1928 143.95 23.1928ZM144.732 20.7912C145.097 20.7912 145.41 20.6867 145.723 20.5301C146.036 20.3735 146.297 20.1125 146.61 19.747V15.257C146.088 14.7871 145.462 14.5261 144.732 14.5261C144.159 14.5261 143.689 14.7872 143.272 15.3092C142.855 15.8313 142.698 16.6145 142.698 17.6064C142.698 18.6506 142.855 19.4337 143.22 19.9558C143.533 20.5301 144.054 20.7912 144.732 20.7912Z" fill="#BF0A21"/>
<path d="M130.598 28.0481H75V29.4577H130.598V28.0481Z" fill="#FFD800"/>
</svg>
