<svg width="212" height="158" viewBox="0 0 212 158" fill="none" xmlns="http://www.w3.org/2000/svg">
<g style="mix-blend-mode:luminosity" clip-path="url(#clip0)">
<path fill-rule="evenodd" clip-rule="evenodd" d="M105.705 65.197C141.088 67.2528 169.836 77.6784 189.149 91.1877C150.966 77.6784 68.9961 77.5316 25.6526 79.7342C55.4328 65.3439 71.2075 63.1413 105.705 65.197Z" fill="#BF0A21"/>
<path fill-rule="evenodd" clip-rule="evenodd" d="M89.1938 0H88.3092L83.1493 13.0688C82.1173 15.7119 82.1173 14.9777 80.4956 15.5651L78.1367 16.1524L75.9253 21.7323L75.0408 28.487L74.3036 41.4089C74.3036 41.4089 72.0922 43.6115 71.2077 42.8773C70.3231 42.1431 69.586 41.7026 69.586 41.7026C69.586 41.7026 67.3746 45.6673 67.3746 48.4572C67.2272 51.3941 66.1952 57.7082 65.1632 59.9108C64.1312 62.1134 63.0992 64.1691 63.0992 64.1691C63.0992 64.1691 52.0422 71.5111 49.5359 72.3922C46.8822 73.4201 40.1006 76.3569 40.1006 76.3569H158.19C156.715 75.329 154.651 74.5948 153.767 73.2732L153.325 70.9238L152.587 67.3996L151.85 64.316L150.523 64.0223L149.786 60.4981L146.69 55.7993L145.069 55.2119C144.774 54.7714 144.626 54.0372 144.184 53.8903L141.825 57.855L140.204 60.0576V64.7565C142.857 69.7491 145.363 72.539 146.101 73.1264L150.376 75.4758C148.607 74.7416 146.838 74.448 145.216 73.4201C143.594 71.0706 140.793 67.987 139.614 64.6097L137.255 56.8271L136.076 47.4294L135.633 39.5L132.39 39.2063L130.621 36.4164L128.409 35.829L128.262 37.1506L122.955 30.9833C122.955 30.9833 117.942 29.2212 117.205 28.3401C116.468 27.4591 114.404 20.9981 114.404 20.9981L111.308 19.0892L107.475 9.83829L105.558 4.99257L103.347 1.4684L99.8085 0L98.4817 1.76208L95.9754 8.36989L94.2063 7.48885L93.3217 3.81784L90.668 0.734201L89.1938 0Z" fill="#BF0A21"/>
<path fill-rule="evenodd" clip-rule="evenodd" d="M109.096 25.6969C106.59 26.2843 104.968 28.9274 105.705 31.5705C106.295 34.0668 108.949 35.6821 111.602 34.9479C114.109 34.3605 115.73 31.7174 114.993 29.0743C114.256 26.578 111.602 25.1096 109.096 25.6969ZM90.8152 33.92C95.9751 34.0668 99.6608 36.5631 102.167 40.5278C104.673 39.2062 107.474 38.3252 109.833 38.1783C117.352 37.8847 125.313 43.3178 128.556 49.7787C130.178 52.8624 130.178 54.3308 128.409 53.3029C127.967 53.0092 127.377 52.5687 126.64 51.9813C126.198 53.156 123.986 55.7992 123.544 56.2397C117.647 62.7006 119.563 70.0427 120.301 77.6783C120.301 78.1189 120.448 79.7341 120.153 80.1746C119.711 80.0278 118.974 78.7062 118.826 78.4125C117.794 76.5036 116.91 74.5947 116.173 72.5389C115.878 71.8047 115.73 70.0427 114.846 70.0427C113.961 70.0427 113.814 71.6579 113.519 72.3921C112.929 74.301 112.045 76.0631 111.013 77.8252C110.865 78.2657 109.686 79.8809 109.244 80.0278C108.654 79.4404 109.096 76.5036 109.244 75.9163C109.833 72.6858 110.865 68.1337 110.128 64.9033C109.981 64.1691 109.686 63.288 109.391 62.5538C108.212 59.7638 106.295 57.4144 104.378 55.2118C103.494 55.065 102.609 54.0371 102.02 52.4218C101.577 51.1003 100.84 49.7787 100.398 48.4572C99.5134 49.0445 98.4814 50.0724 97.5968 51.1003C97.5968 58.4423 99.2185 69.8958 99.366 71.8047C100.103 77.091 99.8083 85.9014 95.5329 75.9163C93.6163 71.2174 92.4369 65.3438 91.8472 60.2044C91.5523 57.8549 90.5203 58.2954 90.2255 60.6449C89.6358 65.6375 88.4564 71.3642 86.5398 75.9163C85.8027 77.6783 83.2964 83.6988 82.5593 78.4125C82.2644 76.3568 82.4119 74.0073 82.7067 71.9516C83.0016 69.3085 86.0975 45.5204 83.5913 45.2267C82.4119 45.5204 82.117 54.1839 80.053 56.9739C78.7262 58.736 77.5468 58.1486 77.1045 54.3308C77.1045 50.9534 77.2519 45.9609 79.3159 41.7025C81.5273 37.1505 85.213 34.0668 90.8152 33.92ZM105.558 53.0092C107.032 53.8902 108.359 54.9181 108.506 55.065C112.634 58.0018 116.025 57.7081 120.301 55.065C121.627 54.1839 122.954 53.3029 124.429 52.4218C124.871 52.1282 125.755 51.5408 126.198 51.6876C123.691 49.485 119.121 44.7862 114.698 44.7862C111.013 44.7862 108.064 47.1356 108.506 51.394C109.538 54.9181 107.769 52.4218 105.558 50.9534C105.705 51.5408 105.705 52.275 105.558 53.0092ZM90.0781 22.4664C87.4244 23.2006 85.9501 25.8438 86.5398 28.3401C87.277 30.9832 89.9306 32.4516 92.4369 31.8642C95.0906 31.13 96.5648 28.4869 95.9751 25.9906C95.3854 23.3475 92.7317 21.8791 90.0781 22.4664ZM110.423 51.394C111.013 53.4497 113.224 54.6244 115.436 54.1839C117.647 53.5966 118.974 51.5408 118.384 49.485C117.942 47.723 116.173 46.5482 114.256 46.5482C111.897 46.6951 109.686 48.8977 110.423 51.394ZM104.378 58.4423C104.231 59.0296 104.231 59.617 104.084 59.9107C103.641 62.2601 103.052 64.6096 102.609 66.959C101.872 70.9237 101.725 77.8252 105.853 70.0427C106.737 68.4274 107.474 66.959 108.064 65.3438C107.769 64.0222 107.18 62.7006 106.442 61.5259C105.853 60.3512 105.116 59.3233 104.378 58.4423Z" fill="#FFD800"/>
<path fill-rule="evenodd" clip-rule="evenodd" d="M0 97.3552H6.63421L7.22392 101.173H7.51878C8.99304 99.8515 10.4673 98.6768 11.9416 97.7957C13.4159 96.9147 15.185 96.621 17.1015 96.621C20.1975 96.621 22.5563 97.6489 24.0306 99.7046C25.5049 101.76 26.242 104.697 26.242 108.515V126.87H17.9861V109.543C17.9861 107.34 17.6912 105.872 17.1015 104.991C16.5118 104.11 15.4798 103.669 14.153 103.669C12.9736 103.669 12.089 103.963 11.2044 104.404C10.3199 104.844 9.43533 105.725 8.25591 106.753V126.87H0V97.3552ZM170.131 150.805C168.656 150.805 167.182 150.364 165.855 149.63C164.529 148.896 163.497 147.868 162.759 146.4C162.022 144.931 161.58 143.316 161.58 141.554C161.58 139.645 162.022 138.03 162.759 136.562C163.497 135.093 164.529 134.065 165.855 133.331C167.182 132.597 168.509 132.156 170.131 132.156C171.605 132.156 173.079 132.597 174.406 133.331C175.733 134.065 176.765 135.093 177.502 136.562C178.239 138.03 178.681 139.645 178.681 141.554C178.681 143.463 178.239 145.078 177.502 146.4C176.765 147.868 175.733 148.896 174.406 149.63C173.079 150.364 171.752 150.805 170.131 150.805ZM170.131 146.84C171.31 146.84 172.047 146.4 172.784 145.372C173.374 144.491 173.669 143.169 173.669 141.554C173.669 139.939 173.374 138.617 172.784 137.736C172.195 136.855 171.31 136.268 170.131 136.268C168.951 136.268 168.067 136.708 167.477 137.736C166.887 138.617 166.592 139.939 166.592 141.554C166.592 143.169 166.887 144.491 167.477 145.372C168.214 146.4 169.099 146.84 170.131 146.84ZM182.515 132.744H186.495L186.79 135.827H186.937C187.527 134.653 188.264 133.772 189.149 133.184C190.033 132.597 190.918 132.303 191.95 132.303C192.834 132.303 193.424 132.45 194.014 132.597L193.129 136.855C193.129 136.855 192.834 136.708 192.54 136.708C192.245 136.562 191.803 136.562 191.36 136.562C190.623 136.562 189.886 136.855 189.149 137.443C188.412 138.03 187.822 138.911 187.38 139.939V150.364H182.515V132.744ZM202.27 158C200.058 158 198.289 157.56 196.962 156.825C195.636 156.091 194.898 154.917 194.898 153.448C194.898 151.98 195.783 150.805 197.405 149.777V149.63C196.373 148.896 195.783 148.015 195.783 146.693C195.783 146.106 195.93 145.519 196.373 144.931C196.815 144.344 197.257 143.904 197.847 143.463V143.316C197.11 142.876 196.668 142.141 196.225 141.407C195.783 140.673 195.636 139.645 195.636 138.764C195.636 137.443 195.93 136.268 196.668 135.387C197.257 134.359 198.142 133.625 199.321 133.184C200.353 132.744 201.533 132.45 202.86 132.45C203.744 132.45 204.629 132.597 205.513 132.891H211.853V136.415H208.904C209.051 136.708 209.346 137.002 209.494 137.589C209.641 138.03 209.641 138.47 209.641 139.058C209.641 140.967 209.051 142.435 207.725 143.463C206.398 144.491 204.776 144.931 202.712 144.931C201.975 144.931 201.238 144.785 200.501 144.638C200.206 144.785 200.058 145.078 199.911 145.225C199.764 145.372 199.764 145.666 199.764 145.959C199.764 146.4 199.911 146.693 200.353 146.987C200.796 147.281 201.533 147.281 202.417 147.281H205.366C207.577 147.281 209.199 147.575 210.378 148.309C211.558 149.043 212 150.218 212 151.686C212 152.861 211.558 153.889 210.821 154.917C210.083 155.944 208.904 156.679 207.43 157.119C205.955 157.706 204.186 158 202.27 158ZM202.565 141.848C203.302 141.848 204.039 141.554 204.481 140.967C204.923 140.379 205.218 139.645 205.218 138.617C205.218 137.589 204.923 136.855 204.481 136.415C204.039 135.827 203.302 135.68 202.565 135.68C201.828 135.68 201.09 135.974 200.648 136.415C200.206 137.002 199.911 137.736 199.911 138.617C199.911 139.645 200.206 140.379 200.648 140.967C201.238 141.554 201.828 141.848 202.565 141.848ZM203.007 154.917C204.186 154.917 205.218 154.623 206.103 154.182C206.84 153.742 207.282 153.154 207.282 152.42C207.282 151.833 206.987 151.392 206.545 151.246C206.103 151.099 205.366 150.952 204.334 150.952H202.27C201.238 150.952 200.353 150.805 199.911 150.658C199.174 151.246 198.879 151.833 198.879 152.567C198.879 153.301 199.174 153.889 199.911 154.182C200.796 154.77 201.828 154.917 203.007 154.917ZM33.9082 97.3552H40.5424L41.1321 101.173H41.427C42.9012 99.7046 44.2281 98.5299 45.7024 97.7957C47.0292 97.0615 48.6509 96.621 50.42 96.621C52.484 96.621 54.2531 97.0615 55.4325 97.9425C56.7594 98.8236 57.7914 99.9983 58.5285 101.76C60.0028 100.145 61.4771 98.9704 62.9513 98.0894C64.4256 97.2084 66.0473 96.7678 67.8164 96.7678C70.9124 96.7678 73.2712 97.7957 74.7455 99.8515C76.2197 101.907 76.9569 104.844 76.9569 108.662V127.017H68.8484V109.543C68.8484 107.34 68.5535 105.872 67.9638 104.991C67.3741 104.11 66.3421 103.669 65.0153 103.669C63.3936 103.669 61.6245 104.697 59.5605 106.753V126.87H51.452V109.543C51.452 107.34 51.1572 105.872 50.5675 104.991C49.9777 104.11 48.9458 103.669 47.6189 103.669C45.9972 103.669 44.2281 104.697 42.1641 106.753V126.87H33.9082V97.3552ZM92.2893 127.604C89.6356 127.604 87.5716 126.723 85.9499 125.108C84.3282 123.493 83.5911 121.29 83.5911 118.794C83.5911 115.71 84.9179 113.214 87.5716 111.452C90.2253 109.69 94.5007 108.515 100.398 107.928C100.25 104.697 98.6286 103.229 95.5327 103.229C94.3533 103.229 93.0264 103.522 91.6996 103.963C90.3727 104.404 89.0459 105.138 87.5716 106.019L84.6231 100.586C88.751 97.9426 93.0264 96.7678 97.007 96.7678C100.84 96.7678 103.641 97.9425 105.558 100.145C107.474 102.348 108.506 105.578 108.506 109.983V127.017H101.872L101.282 123.933H101.135C98.1864 126.283 95.2378 127.604 92.2893 127.604ZM95.0904 121.29C96.1224 121.29 97.007 120.996 97.7441 120.556C98.6286 120.115 99.5132 119.381 100.398 118.5V112.773C97.1544 113.214 94.7955 113.801 93.4687 114.682C92.1419 115.563 91.4047 116.591 91.4047 117.913C91.4047 118.941 91.6996 119.675 92.2893 120.262C93.0264 120.996 93.911 121.29 95.0904 121.29ZM116.32 97.3552H122.954L123.544 100.292H123.839C125.018 99.1173 126.492 98.2362 127.967 97.6489C129.441 96.9147 130.915 96.621 132.389 96.621C135.928 96.621 138.876 97.9426 140.94 100.733C143.004 103.376 144.036 107.047 144.036 111.746C144.036 114.976 143.446 117.766 142.267 120.262C141.088 122.759 139.613 124.521 137.697 125.842C135.78 127.164 133.716 127.751 131.505 127.751C128.999 127.751 126.64 126.723 124.281 124.521L124.576 129.22V138.03H116.467V97.3552H116.32ZM129.588 120.85C131.357 120.85 132.832 120.115 133.864 118.5C135.043 116.885 135.485 114.682 135.485 111.599C135.485 106.019 133.569 103.229 129.883 103.229C128.114 103.229 126.197 104.11 124.281 106.019V118.647C126.05 120.262 127.819 120.85 129.588 120.85ZM150.376 97.3552V138.03H158.484V129.22L158.189 124.521C160.548 126.576 162.907 127.604 165.413 127.604C167.624 127.604 169.688 127.017 171.605 125.695C173.522 124.374 174.996 122.612 176.175 120.115C177.355 117.766 177.944 114.829 177.944 111.599C177.944 107.047 176.912 103.376 174.848 100.586C172.784 97.9426 169.983 96.4741 166.298 96.4741C164.823 96.4741 163.349 96.7678 161.875 97.502C160.401 98.2362 159.074 99.1173 157.747 100.145H157.452L156.862 97.2083H150.376V97.3552ZM163.644 120.85C161.875 120.85 160.106 120.115 158.484 118.794V106.166C160.401 104.257 162.17 103.376 164.086 103.376C167.772 103.376 169.688 106.166 169.688 111.746C169.688 114.829 169.099 117.032 168.067 118.647C166.887 120.115 165.413 120.85 163.644 120.85ZM194.898 127.604C191.213 127.604 188.264 126.283 186.053 123.493C183.841 120.703 182.809 117.032 182.809 112.186C182.809 109.102 183.399 106.312 184.579 103.963C185.758 101.614 187.232 99.8515 189.149 98.5299C191.065 97.2084 192.982 96.621 195.193 96.621C196.815 96.621 198.142 96.9147 199.174 97.3552C200.353 97.9426 201.385 98.6768 202.565 99.7046L202.27 95.1526V84.8738H210.526V126.723H203.892L203.302 123.64H203.154C201.975 124.814 200.796 125.695 199.321 126.283C197.847 127.164 196.373 127.604 194.898 127.604ZM197.11 120.85C198.142 120.85 199.026 120.556 199.911 120.115C200.796 119.675 201.533 118.941 202.417 117.913V105.285C200.943 103.963 199.174 103.229 197.11 103.229C195.488 103.229 194.161 103.963 192.982 105.431C191.802 106.9 191.36 109.102 191.36 111.892C191.36 114.829 191.803 117.032 192.834 118.5C193.719 120.115 195.193 120.85 197.11 120.85Z" fill="#BF0A21"/>
<path d="M157.157 141.26H0V145.225H157.157V141.26Z" fill="#FFD800"/>
</g>
<defs>
<clipPath id="clip0">
<rect width="212" height="158" fill="white"/>
</clipPath>
</defs>
</svg>
