<svg width="14" height="12" viewBox="0 0 14 12" fill="none" xmlns="http://www.w3.org/2000/svg">
<path d="M13.5953 2.05797C13.1098 2.26723 12.5825 2.4179 12.0384 2.47649C12.5992 2.14167 13.0261 1.61433 13.227 0.986538C12.708 1.29625 12.1221 1.52225 11.511 1.63944C11.0172 1.1121 10.314 0.785645 9.53558 0.785645C8.03725 0.785645 6.83189 1.99937 6.83189 3.48933C6.83189 3.69859 6.857 3.90785 6.89886 4.10875C4.65555 3.99156 2.65499 2.92013 1.32408 1.27951C1.0897 1.68129 0.955776 2.14167 0.955776 2.6439C0.955776 3.5814 1.4329 4.41009 2.16113 4.89558C1.71749 4.87884 1.29897 4.75328 0.939035 4.55239C0.939035 4.56076 0.939035 4.5775 0.939035 4.58587C0.939035 5.90004 1.86816 6.98821 3.107 7.23933C2.881 7.29792 2.63825 7.3314 2.39551 7.3314C2.21973 7.3314 2.05232 7.31466 1.88491 7.28955C2.2281 8.36098 3.22419 9.13944 4.41281 9.16455C3.48368 9.89279 2.32017 10.3197 1.05622 10.3197C0.830218 10.3197 0.620954 10.3113 0.40332 10.2862C1.60031 11.0563 3.0233 11.4999 4.55511 11.4999C9.5272 11.4999 12.2476 7.38163 12.2476 3.80741C12.2476 3.69022 12.2476 3.57303 12.2393 3.45585C12.7666 3.0708 13.227 2.59368 13.5953 2.05797Z" fill="#55ACEE"/>
</svg>
